<mxfile host="app.diagrams.net" modified="2024-05-26T15:45:56.317Z" agent="Mozilla/5.0 (Windows NT 10.0; Win64; x64; rv:126.0) Gecko/20100101 Firefox/126.0" etag="n7Aiy32okKo6MFXKWdXa" version="24.4.8" type="device">
  <diagram name="Seite-1" id="wJBI6WCEb2BTEk0uj4uB">
    <mxGraphModel dx="1122" dy="492" grid="1" gridSize="10" guides="1" tooltips="1" connect="1" arrows="1" fold="1" page="1" pageScale="1" pageWidth="827" pageHeight="1169" math="0" shadow="0">
      <root>
        <mxCell id="0" />
        <mxCell id="1" parent="0" />
        <mxCell id="65i6qwLtC-aq_9Xr31Sh-16" value="" style="ellipse;html=1;shape=endState;fillColor=strokeColor;strokeWidth=0;" vertex="1" parent="1">
          <mxGeometry x="170" y="280" width="30" height="30" as="geometry" />
        </mxCell>
        <mxCell id="65i6qwLtC-aq_9Xr31Sh-17" value="Player wakes up " style="text;html=1;align=center;verticalAlign=middle;resizable=0;points=[];autosize=1;strokeColor=none;fillColor=none;" vertex="1" parent="1">
          <mxGeometry x="130" y="245" width="110" height="30" as="geometry" />
        </mxCell>
        <mxCell id="65i6qwLtC-aq_9Xr31Sh-18" value="Scene 3&lt;br&gt;&lt;div&gt;(Dream:office)&lt;/div&gt;" style="shape=folder;align=center;verticalAlign=middle;fontStyle=0;tabWidth=100;tabHeight=30;tabPosition=left;html=1;boundedLbl=1;labelInHeader=1;rounded=1;absoluteArcSize=1;arcSize=10;whiteSpace=wrap;" vertex="1" parent="1">
          <mxGeometry x="300" y="220" width="600" height="350" as="geometry" />
        </mxCell>
        <mxCell id="65i6qwLtC-aq_9Xr31Sh-19" style="edgeStyle=orthogonalEdgeStyle;rounded=0;orthogonalLoop=1;jettySize=auto;html=1;" edge="1" parent="1">
          <mxGeometry relative="1" as="geometry">
            <mxPoint x="206.01996036459286" y="295.0344827586207" as="sourcePoint" />
            <mxPoint x="300" y="296" as="targetPoint" />
          </mxGeometry>
        </mxCell>
        <mxCell id="65i6qwLtC-aq_9Xr31Sh-20" value="" style="ellipse;html=1;shape=endState;fillColor=strokeColor;strokeWidth=0;" vertex="1" parent="1">
          <mxGeometry x="385" y="270" width="30" height="30" as="geometry" />
        </mxCell>
        <mxCell id="65i6qwLtC-aq_9Xr31Sh-21" style="edgeStyle=orthogonalEdgeStyle;rounded=0;orthogonalLoop=1;jettySize=auto;html=1;entryX=0;entryY=0.5;entryDx=0;entryDy=0;" edge="1" parent="1" source="65i6qwLtC-aq_9Xr31Sh-22" target="65i6qwLtC-aq_9Xr31Sh-25">
          <mxGeometry relative="1" as="geometry" />
        </mxCell>
        <mxCell id="65i6qwLtC-aq_9Xr31Sh-32" style="edgeStyle=orthogonalEdgeStyle;rounded=0;orthogonalLoop=1;jettySize=auto;html=1;entryX=0.5;entryY=0;entryDx=0;entryDy=0;" edge="1" parent="1" source="65i6qwLtC-aq_9Xr31Sh-22" target="65i6qwLtC-aq_9Xr31Sh-27">
          <mxGeometry relative="1" as="geometry" />
        </mxCell>
        <mxCell id="65i6qwLtC-aq_9Xr31Sh-22" value="Walk around inside the office" style="rounded=1;whiteSpace=wrap;html=1;" vertex="1" parent="1">
          <mxGeometry x="350" y="340" width="120" height="60" as="geometry" />
        </mxCell>
        <mxCell id="65i6qwLtC-aq_9Xr31Sh-23" style="edgeStyle=orthogonalEdgeStyle;rounded=0;orthogonalLoop=1;jettySize=auto;html=1;exitX=0.5;exitY=1;exitDx=0;exitDy=0;" edge="1" parent="1" source="65i6qwLtC-aq_9Xr31Sh-20">
          <mxGeometry relative="1" as="geometry">
            <mxPoint x="400.00033988749874" y="320" as="sourcePoint" />
            <mxPoint x="400.00033988749874" y="340" as="targetPoint" />
          </mxGeometry>
        </mxCell>
        <mxCell id="65i6qwLtC-aq_9Xr31Sh-24" value="Player starts walking around after waking up on his desk" style="text;html=1;align=center;verticalAlign=middle;whiteSpace=wrap;rounded=0;" vertex="1" parent="1">
          <mxGeometry x="415" y="290" width="150" height="40" as="geometry" />
        </mxCell>
        <mxCell id="65i6qwLtC-aq_9Xr31Sh-25" value="Go to elevator and leave" style="rounded=1;whiteSpace=wrap;html=1;" vertex="1" parent="1">
          <mxGeometry x="565" y="340" width="120" height="60" as="geometry" />
        </mxCell>
        <mxCell id="65i6qwLtC-aq_9Xr31Sh-27" value="Player checks out" style="rounded=1;whiteSpace=wrap;html=1;" vertex="1" parent="1">
          <mxGeometry x="350" y="470" width="120" height="60" as="geometry" />
        </mxCell>
        <mxCell id="65i6qwLtC-aq_9Xr31Sh-28" value="" style="endArrow=classic;html=1;rounded=0;exitX=1;exitY=0.5;exitDx=0;exitDy=0;entryX=0.6;entryY=0.983;entryDx=0;entryDy=0;entryPerimeter=0;" edge="1" parent="1" source="65i6qwLtC-aq_9Xr31Sh-27" target="65i6qwLtC-aq_9Xr31Sh-25">
          <mxGeometry width="50" height="50" relative="1" as="geometry">
            <mxPoint x="750" y="530" as="sourcePoint" />
            <mxPoint x="800" y="480" as="targetPoint" />
            <Array as="points">
              <mxPoint x="637" y="500" />
            </Array>
          </mxGeometry>
        </mxCell>
        <mxCell id="65i6qwLtC-aq_9Xr31Sh-29" value="" style="endArrow=classic;html=1;rounded=0;exitX=1;exitY=0.5;exitDx=0;exitDy=0;entryX=0;entryY=0.5;entryDx=0;entryDy=0;" edge="1" parent="1" source="65i6qwLtC-aq_9Xr31Sh-25" target="65i6qwLtC-aq_9Xr31Sh-30">
          <mxGeometry width="50" height="50" relative="1" as="geometry">
            <mxPoint x="740" y="400" as="sourcePoint" />
            <mxPoint x="790" y="350" as="targetPoint" />
          </mxGeometry>
        </mxCell>
        <mxCell id="65i6qwLtC-aq_9Xr31Sh-30" value="" style="ellipse;html=1;shape=endState;fillColor=strokeColor;" vertex="1" parent="1">
          <mxGeometry x="800" y="355" width="30" height="30" as="geometry" />
        </mxCell>
        <mxCell id="65i6qwLtC-aq_9Xr31Sh-31" value="Player goes home" style="text;html=1;align=center;verticalAlign=middle;whiteSpace=wrap;rounded=0;" vertex="1" parent="1">
          <mxGeometry x="740" y="300" width="150" height="40" as="geometry" />
        </mxCell>
      </root>
    </mxGraphModel>
  </diagram>
</mxfile>
